<?xml version="1.0" encoding="UTF-8" standalone="no"?>
<svg
   viewBox="0 -256 1792 1792"
   id="svg3025"
   version="1.1"
   inkscape:version="1.4 (86a8ad7, 2024-10-11)"
   width="100%"
   height="100%"
   sodipodi:docname="selected-marker.svg"
   xmlns:inkscape="http://www.inkscape.org/namespaces/inkscape"
   xmlns:sodipodi="http://sodipodi.sourceforge.net/DTD/sodipodi-0.dtd"
   xmlns="http://www.w3.org/2000/svg"
   xmlns:svg="http://www.w3.org/2000/svg"
   xmlns:rdf="http://www.w3.org/1999/02/22-rdf-syntax-ns#"
   xmlns:cc="http://creativecommons.org/ns#"
   xmlns:dc="http://purl.org/dc/elements/1.1/">
  <metadata
     id="metadata3035">
    <rdf:RDF>
      <cc:Work
         rdf:about="">
        <dc:format>image/svg+xml</dc:format>
        <dc:type
           rdf:resource="http://purl.org/dc/dcmitype/StillImage" />
      </cc:Work>
    </rdf:RDF>
  </metadata>
  <defs
     id="defs3033" />
  <sodipodi:namedview
     pagecolor="#ffffff"
     bordercolor="#666666"
     borderopacity="1"
     objecttolerance="10"
     gridtolerance="10"
     guidetolerance="10"
     inkscape:pageopacity="0"
     inkscape:pageshadow="2"
     inkscape:window-width="1920"
     inkscape:window-height="1009"
     id="namedview3031"
     showgrid="false"
     inkscape:zoom="0.13169643"
     inkscape:cx="895.99999"
     inkscape:cy="899.7966"
     inkscape:window-x="-8"
     inkscape:window-y="-8"
     inkscape:window-maximized="1"
     inkscape:current-layer="svg3025"
     inkscape:showpageshadow="2"
     inkscape:pagecheckerboard="0"
     inkscape:deskcolor="#d1d1d1" />
  <g
     transform="matrix(1,0,0,-1,364.47458,1270.2373)"
     id="g3027"
     style="fill:#00fe1f;fill-opacity:1">
    <path
       d="m 768,896 q 0,106 -75,181 -75,75 -181,75 -106,0 -181,-75 -75,-75 -75,-181 0,-106 75,-181 75,-75 181,-75 106,0 181,75 75,75 75,181 z m 256,0 q 0,-109 -33,-179 L 627,-57 q -16,-33 -47.5,-52 -31.5,-19 -67.5,-19 -36,0 -67.5,19 Q 413,-90 398,-57 L 33,717 Q 0,787 0,896 q 0,212 150,362 150,150 362,150 212,0 362,-150 150,-150 150,-362 z"
       id="path3029"
       inkscape:connector-curvature="0"
       style="fill:#00fe1f;fill-opacity:1" />
  </g>
</svg>
